<svg width="32" height="32" viewBox="0 0 32 32" fill="none" xmlns="http://www.w3.org/2000/svg"><path d="M32 16c0 8.837-7.163 16-16 16S0 24.837 0 16 7.163 0 16 0s16 7.163 16 16Z" fill="url(#_1562409365__a)"/><path d="M12.235 12.235c0 1.56-.903 2.824-2.017 2.824-1.114 0-2.017-1.264-2.017-2.824 0-1.56.903-2.823 2.017-2.823 1.114 0 2.017 1.264 2.017 2.823ZM23.53 12.047c0 1.456-.843 2.635-1.883 2.635s-1.882-1.18-1.882-2.635c0-1.455.843-2.635 1.882-2.635 1.04 0 1.882 1.18 1.882 2.635ZM19.765 22.588c0 2.6-1.687 4.706-3.765 4.706-2.08 0-3.765-2.105-3.765-4.706 0-2.598 1.685-4.706 3.765-4.706 2.078 0 3.765 2.108 3.765 4.706Z" fill="#664500"/><defs><linearGradient id="_1562409365__a" x1="16" y1="32" x2="16" y2="0" gradientUnits="userSpaceOnUse"><stop stop-color="#FFCC4D"/><stop offset="1" stop-color="#FFDF8E"/></linearGradient></defs></svg>