<svg width="33" height="32" viewBox="0 0 33 32" fill="none" xmlns="http://www.w3.org/2000/svg"><path d="M32.29 16c0 8.837-7.164 16-16 16-8.837 0-16-7.163-16-16 0-8.836 7.163-16 16-16 8.836 0 16 7.164 16 16Z" fill="url(#_3900663394__a)"/><path d="M26.131 15.809c-.055-.127-1.41-3.103-4.195-3.103-2.783 0-4.138 2.976-4.195 3.103a.47.47 0 0 0 .136.556c.165.134.4.138.575.013.011-.009 1.188-.849 3.484-.849 2.284 0 3.458.83 3.485.848a.469.469 0 0 0 .574-.01.471.471 0 0 0 .136-.558ZM14.836 15.809c-.056-.127-1.41-3.103-4.195-3.103-2.783 0-4.138 2.976-4.194 3.103a.47.47 0 0 0 .71.569c.011-.009 1.187-.849 3.484-.849 2.284 0 3.458.83 3.485.848a.468.468 0 0 0 .574-.01.47.47 0 0 0 .136-.558ZM28.524 14.118a.943.943 0 0 1-.874-.592c-1.673-4.183-5.856-5.064-5.898-5.074a.94.94 0 1 1 .369-1.844c.212.041 5.229 1.099 7.278 6.219a.942.942 0 0 1-.875 1.291ZM4.053 14.118a.941.941 0 0 1-.873-1.291c2.048-5.12 7.065-6.178 7.277-6.22a.94.94 0 0 1 .373 1.845c-.174.036-4.242.923-5.902 5.074a.944.944 0 0 1-.875.592ZM16.288 19.765c-3.41 0-5.672-.397-8.47-.941-.64-.124-1.882 0-1.882 1.882 0 3.765 4.324 8.47 10.352 8.47 6.028 0 10.353-4.705 10.353-8.47 0-1.882-1.243-2.007-1.882-1.882-2.798.544-5.06.94-8.47.94Z" fill="#664500"/><path d="M7.818 20.706s2.824.94 8.47.94c5.648 0 8.471-.94 8.471-.94s-1.882 3.765-8.47 3.765c-6.588 0-8.47-3.765-8.47-3.765Z" fill="#fff"/><path d="M9.557 25.628a4.705 4.705 0 0 1-5.72 3.402 4.704 4.704 0 0 1-3.402-5.718c.64-2.52 5.964-8.196 6.877-7.965.911.232 2.884 7.761 2.245 10.28ZM23.002 25.628a4.705 4.705 0 0 0 5.72 3.402 4.704 4.704 0 0 0 3.403-5.718c-.64-2.52-5.965-8.196-6.877-7.965-.912.232-2.885 7.761-2.246 10.28Z" fill="#5DADEC"/><defs><linearGradient id="_3900663394__a" x1="16.289" y1="32" x2="16.289" y2="0" gradientUnits="userSpaceOnUse"><stop stop-color="#FFCC4D"/><stop offset="1" stop-color="#FFDF8E"/></linearGradient></defs></svg>